<?xml version="1.0" standalone="no"?>
<!DOCTYPE svg PUBLIC "-//W3C//DTD SVG 20010904//EN"
 "http://www.w3.org/TR/2001/REC-SVG-20010904/DTD/svg10.dtd">
<svg version="1.0" xmlns="http://www.w3.org/2000/svg"
 width="124.000000pt" height="124.000000pt" viewBox="0 0 124.000000 124.000000"
 preserveAspectRatio="xMidYMid meet">
<metadata>
Created by potrace 1.11, written by Peter Selinger 2001-2013
</metadata>
<g transform="translate(0.000000,124.000000) scale(0.100000,-0.100000)"
fill="#000000" stroke="none">
<path d="M466 1189 c-15 -14 -33 -19 -73 -19 -44 0 -53 -3 -53 -18 0 -36 -20
-42 -142 -42 l-118 0 0 -30 c0 -27 3 -30 30 -30 l31 0 -3 -67 c-3 -66 -4 -68
-30 -71 -24 -3 -28 -8 -28 -36 0 -17 5 -37 12 -44 17 -17 -8 -42 -43 -42 l-29
0 0 -150 c0 -130 2 -150 16 -150 30 0 44 -27 44 -84 0 -56 0 -56 30 -56 25 0
30 -4 30 -24 0 -14 5 -28 10 -31 6 -3 10 -17 10 -31 0 -21 4 -24 20 -19 11 4
20 2 20 -4 0 -6 11 -11 25 -11 14 0 25 -5 25 -11 0 -5 4 -8 8 -5 5 3 15 -6 22
-20 9 -16 21 -24 34 -22 17 2 22 -3 24 -29 l3 -33 69 0 c59 0 71 -3 84 -22 11
-15 19 -18 28 -11 18 14 146 24 182 15 26 -7 34 -4 58 22 15 17 28 25 28 18 0
-7 5 -10 11 -6 6 3 16 0 21 -7 7 -10 8 -8 5 9 -4 19 -2 22 14 17 13 -4 19 -2
19 9 0 19 16 21 23 4 3 -10 9 -11 26 -1 11 7 32 13 45 13 19 0 25 6 28 28 2
21 9 28 31 30 24 3 27 7 27 43 0 37 2 39 29 39 25 0 30 4 33 28 2 21 9 28 31
30 l27 3 0 90 0 89 30 0 30 0 0 90 0 90 -30 0 -30 0 0 90 c0 73 -3 90 -15 91
-8 1 -21 2 -27 3 -7 0 -13 8 -14 16 -1 8 -2 25 -2 38 -2 21 -6 23 -32 17 -29
-6 -30 -5 -30 29 0 33 -2 36 -30 36 -27 0 -30 3 -30 29 0 25 -4 30 -27 33 -22
2 -29 9 -31 31 -2 16 -10 28 -20 29 -37 3 -48 5 -84 13 -21 4 -38 11 -38 16 0
5 -66 9 -147 8 -133 0 -150 -2 -167 -20z"/>
<path d="M880 119 c0 -5 5 -7 10 -4 6 3 10 8 10 11 0 2 -4 4 -10 4 -5 0 -10
-5 -10 -11z"/>
</g>
</svg>
